<svg xmlns="http://www.w3.org/2000/svg" width="1050" height="700" viewBox="0 0 1050 700" role="img"><title>Online latency by UDS 0x29 protocol phase</title><desc>Median latency bars and P95 caps on a linear microsecond scale</desc><defs><pattern id="diag" width="8" height="8" patternUnits="userSpaceOnUse" patternTransform="rotate(45)"><line x1="0" y1="0" x2="0" y2="8" stroke="#111" stroke-width="1.4" opacity=".42"/></pattern><pattern id="cross" width="9" height="9" patternUnits="userSpaceOnUse"><path d="M0 0L9 9M9 0L0 9" stroke="#111" stroke-width="1" opacity=".32"/></pattern><pattern id="dots" width="8" height="8" patternUnits="userSpaceOnUse"><circle cx="2" cy="2" r="1.25" fill="#111" opacity=".42"/></pattern><marker id="arrow" viewBox="0 0 10 10" refX="8" refY="5" markerWidth="7" markerHeight="7" orient="auto-start-reverse"><path d="M0 0L10 5L0 10z" fill="#555"/></marker><pattern id="horiz" width="8" height="8" patternUnits="userSpaceOnUse"><line x1="0" y1="2" x2="8" y2="2" stroke="#111" stroke-width="1.2" opacity=".42"/></pattern></defs><rect width="100%" height="100%" fill="white"/><g font-family="Nimbus Roman, Noto Sans, serif" fill="#171717"><text x="525.00" y="42.00" font-size="30" text-anchor="middle" font-weight="bold">(a) Online Latency by Protocol Phase</text><rect x="90.00" y="61.00" width="32.00" height="19.00" fill="#0072B2" stroke="#222" stroke-width="1.3" rx="2"/><rect x="90.00" y="61.00" width="32.00" height="19.00" fill="url(#diag)" stroke="none" rx="2"/><text x="132.00" y="78.00" font-size="19" text-anchor="start" font-weight="normal">CL-ECS-SM2</text><rect x="325.00" y="61.00" width="32.00" height="19.00" fill="#D55E00" stroke="#222" stroke-width="1.3" rx="2"/><rect x="325.00" y="61.00" width="32.00" height="19.00" fill="url(#cross)" stroke="none" rx="2"/><text x="367.00" y="78.00" font-size="19" text-anchor="start" font-weight="normal">RSA-2048</text><rect x="560.00" y="61.00" width="32.00" height="19.00" fill="#009E73" stroke="#222" stroke-width="1.3" rx="2"/><rect x="560.00" y="61.00" width="32.00" height="19.00" fill="url(#dots)" stroke="none" rx="2"/><text x="602.00" y="78.00" font-size="19" text-anchor="start" font-weight="normal">ECDSA-P256</text><rect x="795.00" y="61.00" width="32.00" height="19.00" fill="#CC79A7" stroke="#222" stroke-width="1.3" rx="2"/><rect x="795.00" y="61.00" width="32.00" height="19.00" fill="url(#horiz)" stroke="none" rx="2"/><text x="837.00" y="78.00" font-size="19" text-anchor="start" font-weight="normal">SM2-SM3</text><line x1="92.00" y1="582.00" x2="992.00" y2="582.00" stroke="#D2D2D2" stroke-width="1"/><text x="80.00" y="589.00" font-size="20" text-anchor="end" font-weight="normal">0</text><line x1="92.00" y1="488.00" x2="992.00" y2="488.00" stroke="#D2D2D2" stroke-width="1"/><text x="80.00" y="495.00" font-size="20" text-anchor="end" font-weight="normal">100</text><line x1="92.00" y1="394.00" x2="992.00" y2="394.00" stroke="#D2D2D2" stroke-width="1"/><text x="80.00" y="401.00" font-size="20" text-anchor="end" font-weight="normal">200</text><line x1="92.00" y1="300.00" x2="992.00" y2="300.00" stroke="#D2D2D2" stroke-width="1"/><text x="80.00" y="307.00" font-size="20" text-anchor="end" font-weight="normal">300</text><line x1="92.00" y1="206.00" x2="992.00" y2="206.00" stroke="#D2D2D2" stroke-width="1"/><text x="80.00" y="213.00" font-size="20" text-anchor="end" font-weight="normal">400</text><line x1="92.00" y1="112.00" x2="992.00" y2="112.00" stroke="#D2D2D2" stroke-width="1"/><text x="80.00" y="119.00" font-size="20" text-anchor="end" font-weight="normal">500</text><line x1="92.00" y1="112.00" x2="92.00" y2="582.00" stroke="#222" stroke-width="1.5"/><line x1="92.00" y1="582.00" x2="992.00" y2="582.00" stroke="#222" stroke-width="1.5"/><rect x="123.00" y="451.97" width="34.00" height="130.03" fill="#0072B2" stroke="#222" stroke-width="1.3" rx="2"/><rect x="123.00" y="451.97" width="34.00" height="130.03" fill="url(#diag)" stroke="none" rx="2"/><line x1="127.00" y1="428.90" x2="153.00" y2="428.90" stroke="#111" stroke-width="3"/><rect x="166.00" y="560.30" width="34.00" height="21.70" fill="#D55E00" stroke="#222" stroke-width="1.3" rx="2"/><rect x="166.00" y="560.30" width="34.00" height="21.70" fill="url(#cross)" stroke="none" rx="2"/><line x1="170.00" y1="551.45" x2="196.00" y2="551.45" stroke="#111" stroke-width="3"/><rect x="209.00" y="534.29" width="34.00" height="47.71" fill="#009E73" stroke="#222" stroke-width="1.3" rx="2"/><rect x="209.00" y="534.29" width="34.00" height="47.71" fill="url(#dots)" stroke="none" rx="2"/><line x1="213.00" y1="519.53" x2="239.00" y2="519.53" stroke="#111" stroke-width="3"/><rect x="252.00" y="434.46" width="34.00" height="147.54" fill="#CC79A7" stroke="#222" stroke-width="1.3" rx="2"/><rect x="252.00" y="434.46" width="34.00" height="147.54" fill="url(#horiz)" stroke="none" rx="2"/><line x1="256.00" y1="405.48" x2="282.00" y2="405.48" stroke="#111" stroke-width="3"/><text x="204.50" y="611.00" font-size="19" text-anchor="middle" font-weight="normal"><tspan x="204.50" dy="0em">0x2901</tspan><tspan x="204.50" dy="1.08em">Credential</tspan></text><rect x="348.00" y="581.69" width="34.00" height="0.31" fill="#0072B2" stroke="#222" stroke-width="1.3" rx="2"/><rect x="348.00" y="581.69" width="34.00" height="0.31" fill="url(#diag)" stroke="none" rx="2"/><line x1="352.00" y1="580.94" x2="378.00" y2="580.94" stroke="#111" stroke-width="3"/><rect x="391.00" y="581.65" width="34.00" height="0.35" fill="#D55E00" stroke="#222" stroke-width="1.3" rx="2"/><rect x="391.00" y="581.65" width="34.00" height="0.35" fill="url(#cross)" stroke="none" rx="2"/><line x1="395.00" y1="581.02" x2="421.00" y2="581.02" stroke="#111" stroke-width="3"/><rect x="434.00" y="581.61" width="34.00" height="0.39" fill="#009E73" stroke="#222" stroke-width="1.3" rx="2"/><rect x="434.00" y="581.61" width="34.00" height="0.39" fill="url(#dots)" stroke="none" rx="2"/><line x1="438.00" y1="580.90" x2="464.00" y2="580.90" stroke="#111" stroke-width="3"/><rect x="477.00" y="581.69" width="34.00" height="0.31" fill="#CC79A7" stroke="#222" stroke-width="1.3" rx="2"/><rect x="477.00" y="581.69" width="34.00" height="0.31" fill="url(#horiz)" stroke="none" rx="2"/><line x1="481.00" y1="581.06" x2="507.00" y2="581.06" stroke="#111" stroke-width="3"/><text x="429.50" y="611.00" font-size="19" text-anchor="middle" font-weight="normal"><tspan x="429.50" dy="0em">0x6901</tspan><tspan x="429.50" dy="1.08em">Challenge</tspan></text><rect x="573.00" y="467.05" width="34.00" height="114.95" fill="#0072B2" stroke="#222" stroke-width="1.3" rx="2"/><rect x="573.00" y="467.05" width="34.00" height="114.95" fill="url(#diag)" stroke="none" rx="2"/><line x1="577.00" y1="445.50" x2="603.00" y2="445.50" stroke="#111" stroke-width="3"/><rect x="616.00" y="262.01" width="34.00" height="319.99" fill="#D55E00" stroke="#222" stroke-width="1.3" rx="2"/><rect x="616.00" y="262.01" width="34.00" height="319.99" fill="url(#cross)" stroke="none" rx="2"/><line x1="620.00" y1="151.83" x2="646.00" y2="151.83" stroke="#111" stroke-width="3"/><rect x="659.00" y="569.90" width="34.00" height="12.10" fill="#009E73" stroke="#222" stroke-width="1.3" rx="2"/><rect x="659.00" y="569.90" width="34.00" height="12.10" fill="url(#dots)" stroke="none" rx="2"/><line x1="663.00" y1="566.29" x2="689.00" y2="566.29" stroke="#111" stroke-width="3"/><rect x="702.00" y="459.10" width="34.00" height="122.90" fill="#CC79A7" stroke="#222" stroke-width="1.3" rx="2"/><rect x="702.00" y="459.10" width="34.00" height="122.90" fill="url(#horiz)" stroke="none" rx="2"/><line x1="706.00" y1="436.53" x2="732.00" y2="436.53" stroke="#111" stroke-width="3"/><text x="654.50" y="611.00" font-size="19" text-anchor="middle" font-weight="normal"><tspan x="654.50" dy="0em">0x2903</tspan><tspan x="654.50" dy="1.08em">Signing</tspan></text><rect x="798.00" y="341.01" width="34.00" height="240.99" fill="#0072B2" stroke="#222" stroke-width="1.3" rx="2"/><rect x="798.00" y="341.01" width="34.00" height="240.99" fill="url(#diag)" stroke="none" rx="2"/><line x1="802.00" y1="297.41" x2="828.00" y2="297.41" stroke="#111" stroke-width="3"/><rect x="841.00" y="566.84" width="34.00" height="15.16" fill="#D55E00" stroke="#222" stroke-width="1.3" rx="2"/><rect x="841.00" y="566.84" width="34.00" height="15.16" fill="url(#cross)" stroke="none" rx="2"/><line x1="845.00" y1="562.34" x2="871.00" y2="562.34" stroke="#111" stroke-width="3"/><rect x="884.00" y="549.34" width="34.00" height="32.66" fill="#009E73" stroke="#222" stroke-width="1.3" rx="2"/><rect x="884.00" y="549.34" width="34.00" height="32.66" fill="url(#dots)" stroke="none" rx="2"/><line x1="888.00" y1="542.36" x2="914.00" y2="542.36" stroke="#111" stroke-width="3"/><rect x="927.00" y="453.61" width="34.00" height="128.39" fill="#CC79A7" stroke="#222" stroke-width="1.3" rx="2"/><rect x="927.00" y="453.61" width="34.00" height="128.39" fill="url(#horiz)" stroke="none" rx="2"/><line x1="931.00" y1="430.15" x2="957.00" y2="430.15" stroke="#111" stroke-width="3"/><text x="879.50" y="611.00" font-size="19" text-anchor="middle" font-weight="normal"><tspan x="879.50" dy="0em">0x6903</tspan><tspan x="879.50" dy="1.08em">Verification</tspan></text><text x="26.00" y="347.00" font-size="22" text-anchor="middle" font-weight="normal" transform="rotate(-90 26 347.0)">Latency (μs)</text><text x="992.00" y="130.00" font-size="17" text-anchor="end" font-weight="normal" fill="#555">bar: median; cap: P95</text><text x="1030.00" y="684.00" font-size="16" text-anchor="end" font-weight="normal" fill="#555">Linear scale; values read directly from input CSV</text></g></svg>
