<svg xmlns="http://www.w3.org/2000/svg" width="850" height="700" viewBox="0 0 850 700" role="img"><title>UDS 0x29 application payload size</title><desc>Stacked application payload bytes for the four authentication messages</desc><defs><pattern id="diag" width="8" height="8" patternUnits="userSpaceOnUse" patternTransform="rotate(45)"><line x1="0" y1="0" x2="0" y2="8" stroke="#111" stroke-width="1.4" opacity=".42"/></pattern><pattern id="cross" width="9" height="9" patternUnits="userSpaceOnUse"><path d="M0 0L9 9M9 0L0 9" stroke="#111" stroke-width="1" opacity=".32"/></pattern><pattern id="dots" width="8" height="8" patternUnits="userSpaceOnUse"><circle cx="2" cy="2" r="1.25" fill="#111" opacity=".42"/></pattern><marker id="arrow" viewBox="0 0 10 10" refX="8" refY="5" markerWidth="7" markerHeight="7" orient="auto-start-reverse"><path d="M0 0L10 5L0 10z" fill="#555"/></marker><pattern id="horiz" width="8" height="8" patternUnits="userSpaceOnUse"><line x1="0" y1="2" x2="8" y2="2" stroke="#111" stroke-width="1.2" opacity=".42"/></pattern></defs><rect width="100%" height="100%" fill="white"/><g font-family="Nimbus Roman, Noto Sans, serif" fill="#171717"><text x="425.00" y="42.00" font-size="30" text-anchor="middle" font-weight="bold">(b) UDS Payload Size</text><line x1="100.00" y1="582.00" x2="790.00" y2="582.00" stroke="#D2D2D2" stroke-width="1"/><text x="89.00" y="589.00" font-size="20" text-anchor="end" font-weight="normal">0</text><line x1="100.00" y1="500.33" x2="790.00" y2="500.33" stroke="#D2D2D2" stroke-width="1"/><text x="89.00" y="507.33" font-size="20" text-anchor="end" font-weight="normal">200</text><line x1="100.00" y1="418.67" x2="790.00" y2="418.67" stroke="#D2D2D2" stroke-width="1"/><text x="89.00" y="425.67" font-size="20" text-anchor="end" font-weight="normal">400</text><line x1="100.00" y1="337.00" x2="790.00" y2="337.00" stroke="#D2D2D2" stroke-width="1"/><text x="89.00" y="344.00" font-size="20" text-anchor="end" font-weight="normal">600</text><line x1="100.00" y1="255.33" x2="790.00" y2="255.33" stroke="#D2D2D2" stroke-width="1"/><text x="89.00" y="262.33" font-size="20" text-anchor="end" font-weight="normal">800</text><line x1="100.00" y1="173.67" x2="790.00" y2="173.67" stroke="#D2D2D2" stroke-width="1"/><text x="89.00" y="180.67" font-size="20" text-anchor="end" font-weight="normal">1000</text><line x1="100.00" y1="92.00" x2="790.00" y2="92.00" stroke="#D2D2D2" stroke-width="1"/><text x="89.00" y="99.00" font-size="20" text-anchor="end" font-weight="normal">1200</text><line x1="100.00" y1="92.00" x2="100.00" y2="582.00" stroke="#222" stroke-width="1.5"/><line x1="100.00" y1="582.00" x2="790.00" y2="582.00" stroke="#222" stroke-width="1.5"/><rect x="145.25" y="547.70" width="82.00" height="34.30" fill="#4C78A8" stroke="white" stroke-width="1"/><text x="186.25" y="571.85" font-size="17" text-anchor="middle" font-weight="bold" fill="white">84</text><rect x="145.25" y="533.82" width="82.00" height="13.88" fill="#F58518" stroke="white" stroke-width="1"/><rect x="145.25" y="506.46" width="82.00" height="27.36" fill="#54A24B" stroke="white" stroke-width="1"/><text x="186.25" y="527.14" font-size="17" text-anchor="middle" font-weight="bold" fill="white">67</text><rect x="145.25" y="505.23" width="82.00" height="1.22" fill="#B279A2" stroke="white" stroke-width="1"/><text x="186.25" y="496.23" font-size="20" text-anchor="middle" font-weight="bold">188</text><text x="186.25" y="612.00" font-size="18" text-anchor="middle" font-weight="normal">CL-ECS-SM2</text><rect x="317.75" y="271.67" width="82.00" height="310.33" fill="#4C78A8" stroke="white" stroke-width="1"/><text x="358.75" y="433.83" font-size="17" text-anchor="middle" font-weight="bold" fill="white">760</text><rect x="317.75" y="257.78" width="82.00" height="13.88" fill="#F58518" stroke="white" stroke-width="1"/><rect x="317.75" y="152.43" width="82.00" height="105.35" fill="#54A24B" stroke="white" stroke-width="1"/><text x="358.75" y="212.11" font-size="17" text-anchor="middle" font-weight="bold" fill="white">258</text><rect x="317.75" y="151.21" width="82.00" height="1.23" fill="#B279A2" stroke="white" stroke-width="1"/><text x="358.75" y="142.21" font-size="20" text-anchor="middle" font-weight="bold">1055</text><text x="358.75" y="612.00" font-size="18" text-anchor="middle" font-weight="normal"><tspan x="358.75" dy="0em">RSA</tspan><tspan x="358.75" dy="1.08em">2048</tspan></text><rect x="490.25" y="433.37" width="82.00" height="148.63" fill="#4C78A8" stroke="white" stroke-width="1"/><text x="531.25" y="514.68" font-size="17" text-anchor="middle" font-weight="bold" fill="white">364</text><rect x="490.25" y="419.48" width="82.00" height="13.88" fill="#F58518" stroke="white" stroke-width="1"/><rect x="490.25" y="389.27" width="82.00" height="30.22" fill="#54A24B" stroke="white" stroke-width="1"/><text x="531.25" y="411.38" font-size="17" text-anchor="middle" font-weight="bold" fill="white">74</text><rect x="490.25" y="388.04" width="82.00" height="1.22" fill="#B279A2" stroke="white" stroke-width="1"/><text x="531.25" y="379.04" font-size="20" text-anchor="middle" font-weight="bold">475</text><text x="531.25" y="612.00" font-size="18" text-anchor="middle" font-weight="normal"><tspan x="531.25" dy="0em">ECDSA</tspan><tspan x="531.25" dy="1.08em">P256</tspan></text><rect x="662.75" y="433.77" width="82.00" height="148.23" fill="#4C78A8" stroke="white" stroke-width="1"/><text x="703.75" y="514.89" font-size="17" text-anchor="middle" font-weight="bold" fill="white">363</text><rect x="662.75" y="419.89" width="82.00" height="13.88" fill="#F58518" stroke="white" stroke-width="1"/><rect x="662.75" y="389.67" width="82.00" height="30.22" fill="#54A24B" stroke="white" stroke-width="1"/><text x="703.75" y="411.78" font-size="17" text-anchor="middle" font-weight="bold" fill="white">74</text><rect x="662.75" y="388.45" width="82.00" height="1.22" fill="#B279A2" stroke="white" stroke-width="1"/><text x="703.75" y="379.45" font-size="20" text-anchor="middle" font-weight="bold">474</text><text x="703.75" y="612.00" font-size="18" text-anchor="middle" font-weight="normal"><tspan x="703.75" dy="0em">SM2</tspan><tspan x="703.75" dy="1.08em">SM3</tspan></text><text x="28.00" y="337.00" font-size="22" text-anchor="middle" font-weight="normal" transform="rotate(-90 28 337.0)">Application payload (bytes)</text><rect x="155.00" y="650.00" width="25.00" height="17.00" fill="#4C78A8"/><text x="189.00" y="665.00" font-size="18" text-anchor="start" font-weight="normal">0x2901</text><rect x="300.00" y="650.00" width="25.00" height="17.00" fill="#F58518"/><text x="334.00" y="665.00" font-size="18" text-anchor="start" font-weight="normal">0x6901</text><rect x="445.00" y="650.00" width="25.00" height="17.00" fill="#54A24B"/><text x="479.00" y="665.00" font-size="18" text-anchor="start" font-weight="normal">0x2903</text><rect x="590.00" y="650.00" width="25.00" height="17.00" fill="#B279A2"/><text x="624.00" y="665.00" font-size="18" text-anchor="start" font-weight="normal">0x6903</text></g></svg>
